<svg xmlns="http://www.w3.org/2000/svg" width="103" height="103" viewBox="0 0 103 103">
  <defs>
    <style>
      .cls-1 {
        fill: #6da7d5;
      }

      .cls-2 {
        fill: #fff;
        fill-rule: evenodd;
      }
    </style>
  </defs>
  <circle class="cls-1" cx="51.5" cy="51.5" r="51.5"/>
  <path id="bag" class="cls-2" d="M1402.7,1422.03V1417l-13.41.02,0.01,5.01h13.4Zm23.22,23.69-0.18.06-0.23.07c-0.19.07-.39,0.13-0.58,0.19-0.34.12-.69,0.22-1.04,0.33l-0.25.07-0.59.19c-0.35.1-.7,0.2-1.04,0.29l-0.34.1c-0.18.05-.36,0.1-0.55,0.16l-0.69.18-0.34.08-0.25.07c-0.22.06-.45,0.12-0.67,0.17-0.27.07-.55,0.13-0.82,0.2l-0.22.05-0.21.05c-0.25.06-.49,0.11-0.73,0.17s-0.49.1-.75,0.16l-0.29.06-0.35.07c-0.21.04-.42,0.09-0.62,0.13-0.25.05-.5,0.1-0.75,0.14l-0.3.06-0.29.05c-0.23.05-.47,0.09-0.7,0.13-0.27.05-.55,0.1-0.83,0.14l-0.24.04-0.31.05c-0.23.04-.45,0.08-0.68,0.11-0.29.05-.59,0.09-0.88,0.13l-0.21.03-0.36.05c-0.21.04-.42,0.06-0.64,0.09-0.26.04-.52,0.07-0.78,0.1l-0.32.04-0.26.03-0.74.09-0.9.09-0.22.02-0.33.03c-0.23.02-.46,0.05-0.69,0.07s-0.46.03-.69,0.05l-0.39.03-0.3.02-0.79.06c-0.2.01-.41,0.02-0.62,0.04l-0.36.02-0.43.02-0.44.03v3.29a2.934,2.934,0,0,1-2.91,2.92h-3.63a2.928,2.928,0,0,1-2.92-2.91v-3.3l-0.46-.03-0.33-.02-0.3-.01c-0.26-.02-0.52-0.03-0.77-0.05-0.21-.01-0.43-0.03-0.65-0.05l-0.36-.02-0.38-.03-0.77-.06c-0.24-.02-0.48-0.05-0.72-0.07l-0.25-.03-0.33-.03c-0.28-.03-0.56-0.05-0.84-0.08-0.21-.03-0.42-0.05-0.64-0.08l-0.32-.03-0.37-.05c-0.26-.03-0.53-0.06-0.78-0.1l-0.69-.09-0.27-.04-0.38-.06c-0.25-.03-0.5-0.07-0.74-0.1-0.22-.04-0.44-0.07-0.65-0.11l-0.32-.05-0.24-.04c-0.29-.05-0.58-0.09-0.86-0.15-0.25-.04-0.49-0.09-0.74-0.13l-0.22-.05-0.25-.04c-0.28-.05-0.55-0.1-0.82-0.16-0.25-.05-0.49-0.1-0.73-0.15l-0.23-.05-0.33-.07-0.72-.15-0.76-.18-0.19-.04-0.26-.07c-0.26-.06-0.51-0.11-0.77-0.18-0.18-.04-0.37-0.09-0.55-0.14l-0.38-.1-0.23-.06c-0.26-.06-0.53-0.13-0.79-0.2-0.19-.06-0.37-0.11-0.56-0.16l-0.35-.1-0.21-.06c-0.27-.07-0.53-0.15-0.8-0.23-0.25-.07-0.49-0.15-0.74-0.23l-0.14-.04-0.21-.07c-0.27-.08-0.53-0.16-0.79-0.24-0.29-.09-0.57-0.19-0.85-0.29-0.34-.11-0.68-0.22-1.01-0.33-0.08-.03-0.15-0.06-0.22-0.08v20.34a0.312,0.312,0,0,0,.31.31h61.38a0.318,0.318,0,0,0,.31-0.31v-20.34l-0.21.07Zm0.77-21.09h-61.38a0.312,0.312,0,0,0-.31.31v17.64c0.35,0.13.69,0.25,1.04,0.38,0.11,0.04.22,0.07,0.33,0.11l0.23,0.08,0.32,0.11c0.3,0.1.6,0.2,0.91,0.3l0.39,0.12,0.23,0.07c0.4,0.13.8,0.25,1.2,0.37l0.42,0.12,0.29,0.08,0.24,0.07c0.3,0.09.61,0.18,0.91,0.26,0.18,0.05.35,0.09,0.53,0.14l0.27,0.07,0.27,0.07c0.27,0.07.54,0.14,0.82,0.21l0.51,0.12,0.39,0.09,0.34,0.08c0.23,0.06.45,0.11,0.68,0.16s0.46,0.1.69,0.15l0.31,0.07,0.31,0.06c0.21,0.05.43,0.09,0.64,0.14,0.27,0.05.53,0.1,0.79,0.15l0.31,0.06,0.25,0.04,0.63,0.12c0.28,0.05.57,0.1,0.85,0.14l0.35,0.06,0.33,0.05,0.48,0.08c0.33,0.05.65,0.1,0.98,0.14l0.33,0.05,0.25,0.04,0.47,0.06q0.615,0.09,1.23.15l0.17,0.02,0.29,0.04c0.13,0.02.25,0.03,0.38,0.04,0.45,0.06.92,0.1,1.38,0.14l0.31,0.03,0.4,0.04c0.34,0.03.68,0.06,1.03,0.08l0.34,0.03,0.33,0.02,0.4,0.03c0.29,0.02.58,0.03,0.88,0.05l0.35,0.02,0.27,0.01c0.07,0.01.14,0.01,0.22,0.02v-2.54a2.913,2.913,0,0,1,2.91-2.91h3.64a2.917,2.917,0,0,1,2.91,2.9v2.55h0.02l0.36-.03,0.4-.02c0.31-.01.62-0.03,0.94-0.05l0.34-.03,0.28-.02c0.49-.03.99-0.07,1.49-0.11l0.27-.03,0.3-.03c0.52-.05,1.02-0.09,1.52-0.15l0.31-.03,0.23-.03,1.52-.18,0.29-.05,0.29-.04,0.2-.03q0.63-.075,1.26-0.18c0.12-.02.24-0.04,0.35-0.06l0.31-.05,0.33-.05c0.34-.06.68-0.11,1.01-0.17q0.255-.045.48-0.09l0.26-.05,0.19-.03c0.35-.07.71-0.13,1.05-0.21,0.16-.02.3-0.06,0.45-0.09l0.36-.07,0.2-.05c0.32-.06.63-0.13,0.95-0.2l0.66-.15,0.19-.05,0.2-.05c0.29-.06.58-0.13,0.87-0.2l0.66-.18,0.26-.06,0.32-.08,0.65-.18c0.28-.07.56-0.15,0.84-0.23l0.12-.04,0.24-.07c0.22-.06.44-0.12,0.66-0.19s0.46-.13.68-0.2l0.32-.1,0.25-.08c0.19-.06.38-0.12,0.58-0.18,0.26-.08.52-0.17,0.78-0.26l0.23-.08,0.27-.09c0.17-.06.34-0.12,0.51-0.17l0.84-.3,0.18-.07v-17.65A0.31,0.31,0,0,0,1426.69,1424.63Zm-28.88,29.3a0.312,0.312,0,0,0,.31-0.31v-9.27c-0.74.01-1.44,0.02-2.12,0.02-0.66,0-1.35-.01-2.12-0.02v9.28a0.31,0.31,0,0,0,.31.3h3.62Z" transform="translate(-1344 -1391)"/>
</svg>
