<svg xmlns="http://www.w3.org/2000/svg" width="56" height="31" viewBox="0 0 56 31">
  <defs>
    <style>
      .cls-1 {
        fill: #0a5d9c;
        fill-rule: evenodd;
      }
    </style>
  </defs>
  <path id="Engineering_icon" class="cls-1" d="M598.057,2282a1.065,1.065,0,0,1,0-2.13h2.535v-0.74a24.536,24.536,0,0,1,15.693-22.91l0.475-.18,0-2.17a1.076,1.076,0,0,1,.589-0.96A19.844,19.844,0,0,1,625,2251a19.6,19.6,0,0,1,7.654,1.92,1.049,1.049,0,0,1,.59.95v2.17l0.475,0.18a24.538,24.538,0,0,1,15.691,22.91v0.74h2.532a1.065,1.065,0,0,1,0,2.13H598.057Zm17.657-23.24a22.457,22.457,0,0,0-13.007,20.37v0.74h44.588v-0.74a22.472,22.472,0,0,0-13-20.37l-1.046-.48v16.45a1.059,1.059,0,1,1-2.117,0v-20.18l-0.468-.19a16.276,16.276,0,0,0-5.659-1.23,16.568,16.568,0,0,0-5.658,1.23l-0.469.18,0,20.43a1.059,1.059,0,0,1-.309.75,1.048,1.048,0,0,1-.747.31,1.064,1.064,0,0,1-1.06-1.06v-16.69Z" transform="translate(-597 -2251)"/>
</svg>
