<svg xmlns="http://www.w3.org/2000/svg" width="56" height="56" viewBox="0 0 56 56">
  <defs>
    <style>
      .cls-1 {
        fill: #0a5d9c;
        fill-rule: evenodd;
      }
    </style>
  </defs>
  <path id="Procurement__icon" data-name="Procurement _icon" class="cls-1" d="M1861.24,2161v-4.13l-0.14-.06c-0.54-.2-1.09-0.43-1.64-0.68l-0.14-.07-2.93,2.93-12.38-12.38,2.93-2.93-0.07-.14c-0.25-.55-0.48-1.11-0.68-1.64l-0.06-.15H1842v-17.51h4.13l0.06-.15c0.2-.53.43-1.08,0.68-1.63l0.07-.15-2.93-2.92,12.38-12.38,2.93,2.92,0.14-.06c0.56-.25,1.11-0.48,1.64-0.69l0.14-.05V2105h17.51v4.13l0.15,0.05c0.56,0.22,1.11.45,1.64,0.69l0.14,0.06,2.93-2.92,3.16,3.16,3.74,3.74,1.96,1.96h0l3.52,3.52-2.93,2.92,0.07,0.15c0.25,0.55.48,1.1,0.68,1.63l0.06,0.15H1898v17.51h-4.13l-0.06.15c-0.2.53-.43,1.09-0.68,1.64l-0.07.14,2.93,2.93-12.38,12.38-2.93-2.93-0.14.07c-0.55.25-1.1,0.48-1.64,0.68l-0.15.06V2161h-17.51Zm2.11-2.11h13.29v-3.53l0.73-.24a24,24,0,0,0,3.06-1.28l0.68-.34,2.5,2.5,9.4-9.39-2.51-2.51,0.34-.68a22.849,22.849,0,0,0,1.28-3.06l0.24-.72h3.53v-13.29h-3.53l-0.24-.72a22.849,22.849,0,0,0-1.28-3.06l-0.34-.68,2.51-2.5-9.4-9.4-2.5,2.5-0.69-.34a24.656,24.656,0,0,0-3.05-1.27l-0.73-.24v-3.53h-13.29v3.53l-0.72.24a22.849,22.849,0,0,0-3.06,1.28l-0.68.34-2.5-2.51-9.4,9.4,2.51,2.5-0.34.68a22.849,22.849,0,0,0-1.28,3.06l-0.24.72h-3.53v13.29h3.53l0.24,0.72a22.849,22.849,0,0,0,1.28,3.06l0.34,0.68-2.51,2.51,9.4,9.39,2.5-2.5,0.68,0.34a25.806,25.806,0,0,0,3.06,1.28l0.72,0.24v3.53Zm6.65-8.16a1.058,1.058,0,0,1-1.06-1.05v-1.56l-0.21-.02a14.842,14.842,0,0,1-3.35-.66l-0.2-.06-0.59,1.43a1.041,1.041,0,0,1-.97.66,0.978,0.978,0,0,1-.41-0.09,1.057,1.057,0,0,1-.57-1.37l0.6-1.44-0.19-.1a15.637,15.637,0,0,1-2.84-1.9l-0.16-.14-1.1,1.11a1.05,1.05,0,0,1-1.49,0,1.056,1.056,0,0,1,0-1.49l1.1-1.11-0.13-.16a15.56,15.56,0,0,1-1.9-2.83l-0.1-.19-1.44.6a1.1,1.1,0,0,1-.4.08,1.071,1.071,0,0,1-.98-0.65,1.131,1.131,0,0,1,0-.81,1.029,1.029,0,0,1,.57-0.57l1.44-.6-0.07-.2a15.3,15.3,0,0,1-.66-3.35l-0.01-.21h-1.56a1.055,1.055,0,1,1,0-2.11h1.56l0.01-.21a15.653,15.653,0,0,1,.66-3.35l0.06-.2-1.43-.59a1.061,1.061,0,0,1-.57-0.57,1.035,1.035,0,0,1,0-.81,1.056,1.056,0,0,1,.98-0.65,1.14,1.14,0,0,1,.4.08l1.44,0.6,0.1-.19a15.3,15.3,0,0,1,1.9-2.84l0.13-.16-1.1-1.1a1.06,1.06,0,0,1-.31-0.75,1.059,1.059,0,0,1,1.05-1.05,1.06,1.06,0,0,1,.75.31l1.1,1.1,0.16-.14a15.763,15.763,0,0,1,2.84-1.89l0.19-.1-0.6-1.44a1.059,1.059,0,0,1,.57-1.38,1.15,1.15,0,0,1,.41-0.08,1.057,1.057,0,0,1,.97.65l0.59,1.43,0.2-.06a15.414,15.414,0,0,1,3.35-.66l0.21-.02v-1.55a1.055,1.055,0,1,1,2.11,0v1.55l0.21,0.02a15.3,15.3,0,0,1,3.35.66l0.2,0.06,0.6-1.43a1.047,1.047,0,0,1,.97-0.65,1.1,1.1,0,0,1,.4.08,1.06,1.06,0,0,1,.58,1.38l-0.6,1.44,0.18,0.1a14.929,14.929,0,0,1,2.84,1.89l0.16,0.14,1.11-1.11a1.07,1.07,0,0,1,.74-0.3,1.05,1.05,0,0,1,.75.3v0.01a1.056,1.056,0,0,1,0,1.49l-1.1,1.1,0.13,0.16a15.3,15.3,0,0,1,1.9,2.84l0.09,0.19,1.45-.6a1.1,1.1,0,0,1,.4-0.08,1.032,1.032,0,0,1,.97.65l0.01,0.01a1.056,1.056,0,0,1-.01.8,1.029,1.029,0,0,1-.57.57l-1.43.59,0.07,0.2a14.725,14.725,0,0,1,.65,3.35l0.02,0.21h1.56a1.055,1.055,0,0,1,0,2.11h-1.56l-0.02.21a14.94,14.94,0,0,1-.65,3.35l-0.07.2,1.44,0.59a1.079,1.079,0,0,1,.57.58,1.1,1.1,0,0,1,0,.8,1.065,1.065,0,0,1-.98.66,0.934,0.934,0,0,1-.4-0.09l-1.44-.59-0.1.18a15.3,15.3,0,0,1-1.9,2.84l-0.13.16,1.1,1.11a1.056,1.056,0,0,1,0,1.49,1.05,1.05,0,0,1-1.49,0l-1.11-1.11-0.16.14a15.222,15.222,0,0,1-2.83,1.9l-0.19.09,0.6,1.45a1.057,1.057,0,0,1-.57,1.37,0.968,0.968,0,0,1-.41.08,1.032,1.032,0,0,1-.97-0.65l-0.6-1.43-0.2.06a14.733,14.733,0,0,1-3.35.66l-0.21.02v1.56a1.05,1.05,0,0,1-1.05,1.05h0Zm0-30.79a13.06,13.06,0,1,0,13.06,13.06A13.076,13.076,0,0,0,1870,2119.94Z" transform="translate(-1842 -2105)"/>
</svg>
