<svg xmlns="http://www.w3.org/2000/svg" width="57" height="72" viewBox="0 0 57 72">
  <defs>
    <style>
      .cls-1 {
        fill: #0a5d9c;
        fill-rule: evenodd;
      }
    </style>
  </defs>
  <path id="Energy_Sector_icon" class="cls-1" d="M654,1977.4l-19.948-8.64v-7.28h0l-7.265-7.2-0.589-.59-0.7-.69-8.552,8.48h0v7.28L597,1977.4v6.3h19.643l-11.684,39.49h-2.5a0.905,0.905,0,1,0,0,1.81h46.086a0.905,0.905,0,1,0,0-1.81h-2.5l-11.684-39.49H654v-6.3Zm-21.768-15.17v6.22H618.767v-6.22l6.733-6.68Zm-13.465,9.12h0v-1.09h13.465v11.64H618.767v-10.55Zm-19.949,10.55v-3.32l18.13-7.85v11.17h-18.13Zm16.863,11.46,8.584,9.28-16.847,18.2Zm-7.972,29.83,17.791-19.22,17.79,19.22H607.709Zm35.649-2.66-2.615-2.76-14.009-15.13,8.585-9.28Zm-8.638-29.19-9.22,9.96-9.221-9.96,2.259-7.64h13.923Zm17.461-9.44h-18.13v-10.55h0v-0.62l18.129,7.85v3.32Z" transform="translate(-597 -1953)"/>
</svg>
