<svg xmlns="http://www.w3.org/2000/svg" width="302" height="111" viewBox="0 0 302 111">
  <defs>
    <style>
      .cls-1 {
        fill: #6da7d5;
        fill-rule: evenodd;
      }
    </style>
  </defs>
  <path id="bsf" class="cls-1" d="M676.584,4046.77c7.7-9.42-.942-21.99-12.955-21.99H621.37a6.362,6.362,0,0,0-6.358,6.37v39.58a6.36,6.36,0,0,0,6.358,6.36h51.758c4.87,0,14.376-3.22,14.376-15.55S679.2,4047.75,676.584,4046.77Zm-49.007-10.21h35.191A4.24,4.24,0,0,1,667,4040.8v0.09a4.238,4.238,0,0,1-4.235,4.23H627.577v-8.56Zm47.436,23.8a4.239,4.239,0,0,1-4.234,4.24h-43.2v-8.56h43.2a4.239,4.239,0,0,1,4.234,4.24v0.08Zm51.91-19.55v0.08a4.228,4.228,0,0,0,4.231,4.23h35.631a15.828,15.828,0,0,1,15.823,15.83v0.32a15.826,15.826,0,0,1-15.823,15.82H721.6a6.069,6.069,0,0,1-6.065-6.07v-0.12a6.06,6.06,0,0,1,6.065-6.06h44.123a4.235,4.235,0,0,0,4.235-4.24v-0.08a4.239,4.239,0,0,0-4.235-4.24H729.558a15.59,15.59,0,0,1-15.59-15.59v-0.31a15.592,15.592,0,0,1,15.59-15.6h44.235a5.839,5.839,0,0,1,5.831,5.84v0.11a5.831,5.831,0,0,1-5.831,5.83H731.164A4.244,4.244,0,0,0,726.923,4040.81Zm100.137-4.4v8.17h45.687a5.674,5.674,0,0,1,5.676,5.67v0.74a5.676,5.676,0,0,1-5.676,5.68H827.06v14.74a5.676,5.676,0,0,1-5.676,5.68H821.27a5.676,5.676,0,0,1-5.676-5.68v-40.95a5.682,5.682,0,0,1,5.676-5.68h51.477a5.682,5.682,0,0,1,5.676,5.68v0.27a5.676,5.676,0,0,1-5.676,5.68H827.06Zm-228.3,69.58h-0.035a1.722,1.722,0,0,1-1.724-1.72v-77.76a1.731,1.731,0,0,1,1.724-1.73h0.035a1.73,1.73,0,0,1,1.723,1.73v77.76A1.721,1.721,0,0,1,598.759,4105.99Zm101.547-11.15h-0.034a1.724,1.724,0,0,1-1.724-1.73v-77.75a1.724,1.724,0,0,1,1.724-1.73h0.034a1.724,1.724,0,0,1,1.724,1.73v77.75A1.724,1.724,0,0,1,700.306,4094.84Zm98.485-7.54h-0.034a1.722,1.722,0,0,1-1.724-1.72v-77.76a1.724,1.724,0,0,1,1.724-1.73h0.034a1.724,1.724,0,0,1,1.724,1.73v77.76A1.722,1.722,0,0,1,798.791,4087.3Zm98.485-11.1h-0.035a1.721,1.721,0,0,1-1.723-1.72v-77.76a1.723,1.723,0,0,1,1.723-1.73h0.035a1.724,1.724,0,0,1,1.724,1.73v77.76A1.722,1.722,0,0,1,897.276,4076.2Z" transform="translate(-597 -3995)"/>
</svg>
