<svg xmlns="http://www.w3.org/2000/svg" width="541" height="200" viewBox="0 0 541 200">
  <defs>
    <style>
      .cls-1 {
        fill: #fff;
        fill-rule: evenodd;
      }
    </style>
  </defs>
  <path id="logo" class="cls-1" d="M1118.57,424.3c13.78-16.98-1.69-39.621-23.21-39.621h-75.7a11.419,11.419,0,0,0-11.39,11.467v71.319a11.417,11.417,0,0,0,11.39,11.457h92.72c8.72,0,25.75-5.8,25.75-28.019S1123.25,426.067,1118.57,424.3Zm-87.79-18.4h63.04a7.611,7.611,0,0,1,7.58,7.63v0.159a7.611,7.611,0,0,1-7.58,7.63h-63.04V405.905Zm84.97,42.882a7.611,7.611,0,0,1-7.58,7.63h-77.39V441h77.39a7.611,7.611,0,0,1,7.58,7.63v0.158Zm92.99-35.24V413.7a7.606,7.606,0,0,0,7.58,7.623h63.83a28.429,28.429,0,0,1,28.35,28.511v0.576a28.429,28.429,0,0,1-28.35,28.512h-80.94A10.893,10.893,0,0,1,1188.35,468v-0.22a10.893,10.893,0,0,1,10.86-10.928h79.04a7.606,7.606,0,0,0,7.59-7.63v-0.158a7.611,7.611,0,0,0-7.59-7.63h-64.79a28.014,28.014,0,0,1-27.93-28.091v-0.567a28.014,28.014,0,0,1,27.93-28.091h79.24a10.479,10.479,0,0,1,10.45,10.506V395.4a10.479,10.479,0,0,1-10.45,10.506h-76.36A7.62,7.62,0,0,0,1208.74,413.547Zm179.39-7.925v14.717h81.84a10.2,10.2,0,0,1,10.17,10.227V431.9a10.2,10.2,0,0,1-10.17,10.227h-81.84V468.7a10.2,10.2,0,0,1-10.17,10.227h-0.21a10.2,10.2,0,0,1-10.16-10.227v-73.79a10.194,10.194,0,0,1,10.16-10.226h92.22a10.2,10.2,0,0,1,10.17,10.226v0.49a10.2,10.2,0,0,1-10.17,10.226h-81.84ZM979.15,531h-0.062A3.1,3.1,0,0,1,976,527.891V387.785a3.1,3.1,0,0,1,3.088-3.105h0.062a3.1,3.1,0,0,1,3.088,3.105V527.891A3.1,3.1,0,0,1,979.15,531ZM1161.06,510.9H1161a3.1,3.1,0,0,1-3.09-3.106V367.691a3.1,3.1,0,0,1,3.09-3.1h0.06a3.1,3.1,0,0,1,3.09,3.1V507.8A3.1,3.1,0,0,1,1161.06,510.9Zm176.43-13.586h-0.07a3.093,3.093,0,0,1-3.08-3.105V354.106a3.094,3.094,0,0,1,3.08-3.106h0.07a3.094,3.094,0,0,1,3.08,3.106V494.212A3.093,3.093,0,0,1,1337.49,497.317Zm176.42-20h-0.06a3.1,3.1,0,0,1-3.09-3.1V334.106a3.1,3.1,0,0,1,3.09-3.105h0.06a3.1,3.1,0,0,1,3.09,3.105V474.213A3.1,3.1,0,0,1,1513.91,477.318Z" transform="translate(-976 -331)"/>
</svg>
